%TF.GenerationSoftware,Altium Limited,Altium Designer,19.0.15 (446)*%
G04 Layer_Color=8388736*
%FSLAX45Y45*%
%MOMM*%
%TF.FileFunction,Soldermask,Top*%
%TF.Part,Single*%
G01*
G75*
%TA.AperFunction,SMDPad,CuDef*%
%ADD27P,2.40869X4X165.0*%
%ADD28R,1.70320X1.70320*%
G04:AMPARAMS|DCode=29|XSize=0.6932mm|YSize=0.8032mm|CornerRadius=0.1506mm|HoleSize=0mm|Usage=FLASHONLY|Rotation=120.000|XOffset=0mm|YOffset=0mm|HoleType=Round|Shape=RoundedRectangle|*
%AMROUNDEDRECTD29*
21,1,0.69320,0.50200,0,0,120.0*
21,1,0.39200,0.80320,0,0,120.0*
1,1,0.30120,0.11937,0.29524*
1,1,0.30120,0.31537,-0.04424*
1,1,0.30120,-0.11937,-0.29524*
1,1,0.30120,-0.31537,0.04424*
%
%ADD29ROUNDEDRECTD29*%
G04:AMPARAMS|DCode=30|XSize=0.6932mm|YSize=0.8032mm|CornerRadius=0.1506mm|HoleSize=0mm|Usage=FLASHONLY|Rotation=90.000|XOffset=0mm|YOffset=0mm|HoleType=Round|Shape=RoundedRectangle|*
%AMROUNDEDRECTD30*
21,1,0.69320,0.50200,0,0,90.0*
21,1,0.39200,0.80320,0,0,90.0*
1,1,0.30120,0.25100,0.19600*
1,1,0.30120,0.25100,-0.19600*
1,1,0.30120,-0.25100,-0.19600*
1,1,0.30120,-0.25100,0.19600*
%
%ADD30ROUNDEDRECTD30*%
%ADD31P,2.40869X4X105.0*%
%ADD32P,2.40869X4X195.0*%
G04:AMPARAMS|DCode=33|XSize=0.6932mm|YSize=0.8032mm|CornerRadius=0.1506mm|HoleSize=0mm|Usage=FLASHONLY|Rotation=60.000|XOffset=0mm|YOffset=0mm|HoleType=Round|Shape=RoundedRectangle|*
%AMROUNDEDRECTD33*
21,1,0.69320,0.50200,0,0,60.0*
21,1,0.39200,0.80320,0,0,60.0*
1,1,0.30120,0.31537,0.04424*
1,1,0.30120,0.11937,-0.29524*
1,1,0.30120,-0.31537,-0.04424*
1,1,0.30120,-0.11937,0.29524*
%
%ADD33ROUNDEDRECTD33*%
G04:AMPARAMS|DCode=34|XSize=0.6932mm|YSize=0.8032mm|CornerRadius=0.1506mm|HoleSize=0mm|Usage=FLASHONLY|Rotation=150.000|XOffset=0mm|YOffset=0mm|HoleType=Round|Shape=RoundedRectangle|*
%AMROUNDEDRECTD34*
21,1,0.69320,0.50200,0,0,150.0*
21,1,0.39200,0.80320,0,0,150.0*
1,1,0.30120,-0.04424,0.31537*
1,1,0.30120,0.29524,0.11937*
1,1,0.30120,0.04424,-0.31537*
1,1,0.30120,-0.29524,-0.11937*
%
%ADD34ROUNDEDRECTD34*%
%ADD35R,1.70320X1.70320*%
%ADD36P,2.40869X4X75.0*%
G04:AMPARAMS|DCode=37|XSize=0.6932mm|YSize=0.8032mm|CornerRadius=0.1506mm|HoleSize=0mm|Usage=FLASHONLY|Rotation=180.000|XOffset=0mm|YOffset=0mm|HoleType=Round|Shape=RoundedRectangle|*
%AMROUNDEDRECTD37*
21,1,0.69320,0.50200,0,0,180.0*
21,1,0.39200,0.80320,0,0,180.0*
1,1,0.30120,-0.19600,0.25100*
1,1,0.30120,0.19600,0.25100*
1,1,0.30120,0.19600,-0.25100*
1,1,0.30120,-0.19600,-0.25100*
%
%ADD37ROUNDEDRECTD37*%
G04:AMPARAMS|DCode=38|XSize=0.6932mm|YSize=0.8032mm|CornerRadius=0.1506mm|HoleSize=0mm|Usage=FLASHONLY|Rotation=30.000|XOffset=0mm|YOffset=0mm|HoleType=Round|Shape=RoundedRectangle|*
%AMROUNDEDRECTD38*
21,1,0.69320,0.50200,0,0,30.0*
21,1,0.39200,0.80320,0,0,30.0*
1,1,0.30120,0.29524,-0.11937*
1,1,0.30120,-0.04424,-0.31537*
1,1,0.30120,-0.29524,0.11937*
1,1,0.30120,0.04424,0.31537*
%
%ADD38ROUNDEDRECTD38*%
%TA.AperFunction,ComponentPad*%
%ADD39C,1.70320*%
%ADD40R,1.70320X1.70320*%
D27*
X6424798Y8840043D02*
D03*
X6249802Y9143157D02*
D03*
X8674100Y4940300D02*
D03*
X8849101Y4637191D02*
D03*
D28*
X7543800Y9060698D02*
D03*
Y9410700D02*
D03*
X7556500Y4718802D02*
D03*
Y4368800D02*
D03*
D29*
X6842648Y8113994D02*
D03*
X6797152Y8192806D02*
D03*
X8244952Y5692211D02*
D03*
X8290448Y5613400D02*
D03*
D30*
X7556500Y8272998D02*
D03*
Y8364002D02*
D03*
Y5440898D02*
D03*
Y5531902D02*
D03*
D31*
X8676899Y8815491D02*
D03*
X8851900Y9118600D02*
D03*
X6424798Y4939457D02*
D03*
X6249802Y4636343D02*
D03*
D32*
X5663357Y7951602D02*
D03*
X5360243Y8126598D02*
D03*
X9374292Y5813801D02*
D03*
X9677400Y5638800D02*
D03*
D33*
X8244952Y8063194D02*
D03*
X8290448Y8142006D02*
D03*
X6855348Y5652806D02*
D03*
X6809852Y5573994D02*
D03*
D34*
X6338606Y7584552D02*
D03*
X6259794Y7630048D02*
D03*
X8850594Y6093348D02*
D03*
X8929406Y6047852D02*
D03*
D35*
X5280401Y6858000D02*
D03*
X4930399D02*
D03*
X9771898Y6870700D02*
D03*
X10121900D02*
D03*
D36*
X9468790Y7978399D02*
D03*
X9771898Y8153400D02*
D03*
X5713308Y5801101D02*
D03*
X5410200Y5626100D02*
D03*
D37*
X6179602Y6858000D02*
D03*
X6088598D02*
D03*
X8946098Y6870700D02*
D03*
X9037102D02*
D03*
D38*
X8736294Y7559152D02*
D03*
X8815106Y7604648D02*
D03*
X6376706Y6169548D02*
D03*
X6297894Y6124052D02*
D03*
D39*
X7467600Y6781800D02*
D03*
D40*
X7721600D02*
D03*
%TF.MD5,338cf8acf3dfb9dc31a51a5e87639520*%
M02*
