%FSTAX23Y23*%
%MOIN*%
%SFA1B1*%

%IPPOS*%
%AMD13*
4,1,4,-0.010800,-0.040300,0.040300,-0.010800,0.010800,0.040300,-0.040300,0.010800,-0.010800,-0.040300,0.0*
%
%AMD15*
4,1,8,-0.014100,0.000800,-0.006400,-0.012600,-0.003800,-0.013300,0.013400,-0.003400,0.014100,-0.000800,0.006400,0.012600,0.003800,0.013300,-0.013400,0.003400,-0.014100,0.000800,0.0*
1,1,0.003860,-0.012400,0.001700*
1,1,0.003860,-0.004700,-0.011600*
1,1,0.003860,0.012400,-0.001700*
1,1,0.003860,0.004700,0.011600*
%
%AMD16*
4,1,8,-0.011800,0.007700,-0.011800,-0.007700,-0.009900,-0.009600,0.009900,-0.009600,0.011800,-0.007700,0.011800,0.007700,0.009900,0.009600,-0.009900,0.009600,-0.011800,0.007700,0.0*
1,1,0.003860,-0.009900,0.007700*
1,1,0.003860,-0.009900,-0.007700*
1,1,0.003860,0.009900,-0.007700*
1,1,0.003860,0.009900,0.007700*
%
%AMD17*
4,1,4,-0.040300,-0.010800,0.010800,-0.040300,0.040300,0.010800,-0.010800,0.040300,-0.040300,-0.010800,0.0*
%
%AMD18*
4,1,4,0.010800,-0.040300,0.040300,0.010800,-0.010800,0.040300,-0.040300,-0.010800,0.010800,-0.040300,0.0*
%
%AMD19*
4,1,8,-0.006400,0.012600,-0.014100,-0.000800,-0.013400,-0.003400,0.003800,-0.013300,0.006400,-0.012600,0.014100,0.000800,0.013400,0.003400,-0.003800,0.013300,-0.006400,0.012600,0.0*
1,1,0.003860,-0.004700,0.011600*
1,1,0.003860,-0.012400,-0.001700*
1,1,0.003860,0.004700,-0.011600*
1,1,0.003860,0.012400,0.001700*
%
%AMD20*
4,1,8,-0.012600,-0.006400,0.000800,-0.014100,0.003400,-0.013400,0.013300,0.003800,0.012600,0.006400,-0.000800,0.014100,-0.003400,0.013400,-0.013300,-0.003800,-0.012600,-0.006400,0.0*
1,1,0.003860,-0.011600,-0.004700*
1,1,0.003860,0.001700,-0.012400*
1,1,0.003860,0.011600,0.004700*
1,1,0.003860,-0.001700,0.012400*
%
%AMD22*
4,1,4,-0.040300,0.010800,-0.010800,-0.040300,0.040300,-0.010800,0.010800,0.040300,-0.040300,0.010800,0.0*
%
%AMD23*
4,1,8,-0.007700,-0.011800,0.007700,-0.011800,0.009600,-0.009900,0.009600,0.009900,0.007700,0.011800,-0.007700,0.011800,-0.009600,0.009900,-0.009600,-0.009900,-0.007700,-0.011800,0.0*
1,1,0.003860,-0.007700,-0.009900*
1,1,0.003860,0.007700,-0.009900*
1,1,0.003860,0.007700,0.009900*
1,1,0.003860,-0.007700,0.009900*
%
%AMD24*
4,1,8,0.000800,0.014100,-0.012600,0.006400,-0.013300,0.003800,-0.003400,-0.013400,-0.000800,-0.014100,0.012600,-0.006400,0.013300,-0.003800,0.003400,0.013400,0.000800,0.014100,0.0*
1,1,0.003860,0.001700,0.012400*
1,1,0.003860,-0.011600,0.004700*
1,1,0.003860,-0.001700,-0.012400*
1,1,0.003860,0.011600,-0.004700*
%
G04~CAMADD=13~10~0.0~590.6~0.0~0.0~0.0~0.0~0~0.0~0.0~0.0~0.0~0~0.0~0.0~0.0~0.0~0~0.0~0.0~0.0~210.0~590.6~0.0*
%ADD13D13*%
%ADD14R,0.059060X0.059060*%
G04~CAMADD=15~8~0.0~0.0~192.9~236.2~19.3~0.0~15~0.0~0.0~0.0~0.0~0~0.0~0.0~0.0~0.0~0~0.0~0.0~0.0~120.0~286.0~270.0*
%ADD15D15*%
G04~CAMADD=16~8~0.0~0.0~192.9~236.2~19.3~0.0~15~0.0~0.0~0.0~0.0~0~0.0~0.0~0.0~0.0~0~0.0~0.0~0.0~90.0~236.0~192.0*
%ADD16D16*%
G04~CAMADD=17~10~0.0~590.6~0.0~0.0~0.0~0.0~0~0.0~0.0~0.0~0.0~0~0.0~0.0~0.0~0.0~0~0.0~0.0~0.0~150.0~590.6~0.0*
%ADD17D17*%
G04~CAMADD=18~10~0.0~590.6~0.0~0.0~0.0~0.0~0~0.0~0.0~0.0~0.0~0~0.0~0.0~0.0~0.0~0~0.0~0.0~0.0~240.0~590.6~0.0*
%ADD18D18*%
G04~CAMADD=19~8~0.0~0.0~192.9~236.2~19.3~0.0~15~0.0~0.0~0.0~0.0~0~0.0~0.0~0.0~0.0~0~0.0~0.0~0.0~60.0~288.0~271.0*
%ADD19D19*%
G04~CAMADD=20~8~0.0~0.0~192.9~236.2~19.3~0.0~15~0.0~0.0~0.0~0.0~0~0.0~0.0~0.0~0.0~0~0.0~0.0~0.0~150.0~272.0~287.0*
%ADD20D20*%
%ADD21R,0.059060X0.059060*%
G04~CAMADD=22~10~0.0~590.6~0.0~0.0~0.0~0.0~0~0.0~0.0~0.0~0.0~0~0.0~0.0~0.0~0.0~0~0.0~0.0~0.0~120.0~590.6~0.0*
%ADD22D22*%
G04~CAMADD=23~8~0.0~0.0~192.9~236.2~19.3~0.0~15~0.0~0.0~0.0~0.0~0~0.0~0.0~0.0~0.0~0~0.0~0.0~0.0~180.0~192.0~236.0*
%ADD23D23*%
G04~CAMADD=24~8~0.0~0.0~192.9~236.2~19.3~0.0~15~0.0~0.0~0.0~0.0~0~0.0~0.0~0.0~0.0~0~0.0~0.0~0.0~30.0~270.0~286.0*
%ADD24D24*%
%LNnatal-1*%
%LPD*%
G54D13*
X02529Y0348D03*
X0246Y03599D03*
X03415Y01945D03*
X03483Y01825D03*
G54D14*
X0297Y03567D03*
Y03705D03*
X02975Y01857D03*
Y0172D03*
G54D15*
X02693Y03194D03*
X02676Y03225D03*
X03246Y02241D03*
X03263Y0221D03*
G54D16*
X02975Y03257D03*
Y03292D03*
Y02142D03*
Y02177D03*
G54D17*
X03416Y0347D03*
X03485Y0359D03*
X02529Y01944D03*
X0246Y01825D03*
G54D18*
X02229Y0313D03*
X0211Y03199D03*
X0369Y02288D03*
X0381Y0222D03*
G54D19*
X03246Y03174D03*
X03263Y03205D03*
X02698Y02225D03*
X02681Y02194D03*
G54D20*
X02495Y02986D03*
X02464Y03003D03*
X03484Y02398D03*
X03515Y02381D03*
G54D21*
X02078Y027D03*
X01941D03*
X03847Y02705D03*
X03985D03*
G54D22*
X03727Y03141D03*
X03847Y0321D03*
X02249Y02283D03*
X0213Y02215D03*
G54D23*
X02432Y027D03*
X02397D03*
X03522Y02705D03*
X03557D03*
G54D24*
X03439Y02976D03*
X0347Y02993D03*
X0251Y02428D03*
X02479Y02411D03*
M02*