%FSTAX23Y23*%
%MOIN*%
%SFA1B1*%

%IPPOS*%
%ADD10C,0.007870*%
%ADD11C,0.010000*%
%ADD12C,0.005910*%
%LNnatal-1*%
%LPD*%
G54D10*
X02402Y03609D02*
X02436Y03551D01*
X02457Y03663D02*
X02481Y03654D01*
X02402Y03609D02*
X02406Y03634D01*
X02481Y03654D02*
X02514Y03596D01*
X02406Y03634D02*
X02457Y03663D01*
X02512Y03418D02*
X02591Y03463D01*
X02475Y03483D02*
X02512Y03418D01*
X02553Y03528D02*
X02591Y03463D01*
X02924Y03675D02*
Y03742D01*
X02999Y03762D02*
X03015Y03742D01*
X02924D02*
X0294Y03762D01*
X03015Y03675D02*
Y03742D01*
X0294Y03762D02*
X02999D01*
X02924Y03521D02*
X03015D01*
X02924D02*
Y03596D01*
X03015Y03521D02*
Y03596D01*
X03431Y03587D02*
X03464Y03645D01*
X03539Y03624D02*
X03542Y03599D01*
X03464Y03645D02*
X03487Y03654D01*
X03509Y03541D02*
X03542Y03599D01*
X03487Y03654D02*
X03539Y03624D01*
X03354Y03454D02*
X03432Y03408D01*
X03354Y03454D02*
X03391Y03518D01*
X03432Y03408D02*
X0347Y03473D01*
X02055Y03178D02*
X02113Y03145D01*
X02075Y03253D02*
X021Y03257D01*
X02046Y03202D02*
X02055Y03178D01*
X021Y03257D02*
X02158Y03223D01*
X02046Y03202D02*
X02075Y03253D01*
X02246Y03068D02*
X02291Y03147D01*
X02181Y03106D02*
X02246Y03068D01*
X02226Y03184D02*
X02291Y03147D01*
X01903Y02654D02*
X0197D01*
X01884Y02729D02*
X01903Y02745D01*
X01884Y0267D02*
X01903Y02654D01*
Y02745D02*
X0197D01*
X01884Y0267D02*
Y02729D01*
X02124Y02654D02*
Y02745D01*
X02049Y02654D02*
X02124D01*
X02049Y02745D02*
X02124D01*
X03799Y03234D02*
X03856Y03267D01*
X03902Y03189D02*
X03911Y03212D01*
X03856Y03267D02*
X03881Y03264D01*
X03844Y03156D02*
X03902Y03189D01*
X03881Y03264D02*
X03911Y03212D01*
X03666Y03157D02*
X03711Y03079D01*
X03666Y03157D02*
X0373Y03195D01*
X03711Y03079D02*
X03776Y03116D01*
X0212Y02157D02*
X02178Y0219D01*
X02065Y02212D02*
X02074Y02235D01*
X02095Y0216D02*
X0212Y02157D01*
X02074Y02235D02*
X02132Y02268D01*
X02065Y02212D02*
X02095Y0216D01*
X02265Y02345D02*
X02311Y02267D01*
X02246Y02229D02*
X02311Y02267D01*
X02201Y02308D02*
X02265Y02345D01*
X03955Y0275D02*
X04022D01*
Y02659D02*
X04042Y02675D01*
X04022Y0275D02*
X04042Y02734D01*
X03955Y02659D02*
X04022D01*
X04042Y02675D02*
Y02734D01*
X03801Y02659D02*
Y0275D01*
X03876*
X03801Y02659D02*
X03876D01*
X02481Y0177D02*
X02514Y01828D01*
X02402Y01815D02*
X02406Y0179D01*
X02457Y01761D02*
X02481Y0177D01*
X02402Y01815D02*
X02436Y01873D01*
X02406Y0179D02*
X02457Y01761D01*
X02512Y02006D02*
X02591Y01961D01*
X02553Y01896D02*
X02591Y01961D01*
X02475Y01941D02*
X02512Y02006D01*
X03807Y02273D02*
X03865Y0224D01*
X03819Y02162D02*
X03844Y02165D01*
X03865Y0224D02*
X03874Y02217D01*
X03761Y02195D02*
X03819Y02162D01*
X03844Y02165D02*
X03874Y02217D01*
X03628Y02272D02*
X03674Y0235D01*
X03738Y02313*
X03628Y02272D02*
X03693Y02234D01*
X0302Y01682D02*
Y01749D01*
X02929Y01682D02*
X02945Y01662D01*
X03004D02*
X0302Y01682D01*
X02929D02*
Y01749D01*
X02945Y01662D02*
X03004D01*
X02929Y01903D02*
X0302D01*
Y01828D02*
Y01903D01*
X02929Y01828D02*
Y01903D01*
X03508Y01873D02*
X03541Y01815D01*
X03463Y0177D02*
X03486Y01761D01*
X03538Y0179D02*
X03541Y01815D01*
X03429Y01828D02*
X03463Y0177D01*
X03486Y01761D02*
X03538Y0179D01*
X03353Y01961D02*
X03431Y02006D01*
X03468Y01942*
X03353Y01961D02*
X0339Y01896D01*
X0289Y0262D02*
X0309D01*
Y0272*
X0289D02*
X0309D01*
X0289Y0262D02*
Y0272D01*
G54D11*
X02409Y03757D02*
Y03698D01*
X02438*
X02448Y03708*
Y03747*
X02438Y03757*
X02409*
X02468Y03698D02*
X02488D01*
X02478*
Y03757*
X02468Y03747*
X02558Y03698D02*
X02518D01*
X02558Y03737*
Y03747*
X02548Y03757*
X02528*
X02518Y03747*
X02931Y03855D02*
Y03796D01*
X0296*
X0297Y03806*
Y03845*
X0296Y03855*
X02931*
X0299Y03796D02*
X0301D01*
X03*
Y03855*
X0299Y03845*
X02657Y03294D02*
Y03353D01*
X02686*
X02696Y03343*
Y03323*
X02686Y03313*
X02657*
X02676D02*
X02696Y03294D01*
X02716Y03284D02*
X02756D01*
X02776Y03353D02*
Y03294D01*
X02816*
X02876Y03353D02*
X02836D01*
Y03294*
X02876*
X02836Y03323D02*
X02856D01*
X02896Y03353D02*
Y03294D01*
X02926*
X02936Y03304*
Y03343*
X02926Y03353*
X02896*
X02956Y03294D02*
X02976D01*
X02966*
Y03353*
X02956Y03343*
X03046Y03294D02*
X03006D01*
X03046Y03333*
Y03343*
X03036Y03353*
X03016*
X03006Y03343*
X02962Y03353D02*
Y03412D01*
X02991*
X03001Y03402*
Y03382*
X02991Y03372*
X02962*
X02981D02*
X03001Y03353D01*
X03021Y03343D02*
X03061D01*
X03081Y03412D02*
Y03353D01*
X03121*
X03181Y03412D02*
X03141D01*
Y03353*
X03181*
X03141Y03382D02*
X03161D01*
X03201Y03412D02*
Y03353D01*
X03231*
X03241Y03363*
Y03402*
X03231Y03412*
X03201*
X03261Y03353D02*
X03281D01*
X03271*
Y03412*
X03261Y03402*
X0336Y03747D02*
Y03688D01*
X03389*
X03399Y03698*
Y03737*
X03389Y03747*
X0336*
X03459Y03688D02*
X03419D01*
X03459Y03727*
Y03737*
X03449Y03747*
X03429*
X03419Y03737*
X02052Y0335D02*
Y03291D01*
X02081*
X02091Y03301*
Y0334*
X02081Y0335*
X02052*
X02111Y03291D02*
X02131D01*
X02121*
Y0335*
X02111Y0334*
X02161Y03291D02*
X02181D01*
X02171*
Y0335*
X02161Y0334*
X03227Y03274D02*
Y03333D01*
X03256*
X03266Y03323*
Y03303*
X03256Y03293*
X03227*
X03246D02*
X03266Y03274D01*
X03286Y03264D02*
X03326D01*
X03346Y03333D02*
Y03274D01*
X03386*
X03446Y03333D02*
X03406D01*
Y03274*
X03446*
X03406Y03303D02*
X03426D01*
X03466Y03333D02*
Y03274D01*
X03496*
X03506Y03284*
Y03323*
X03496Y03333*
X03466*
X03566Y03274D02*
X03526D01*
X03566Y03313*
Y03323*
X03556Y03333*
X03536*
X03526Y03323*
X02446Y03073D02*
Y03132D01*
X02475*
X02485Y03122*
Y03102*
X02475Y03092*
X02446*
X02465D02*
X02485Y03073D01*
X02505Y03063D02*
X02545D01*
X02565Y03132D02*
Y03073D01*
X02605*
X02665Y03132D02*
X02625D01*
Y03073*
X02665*
X02625Y03102D02*
X02645D01*
X02685Y03132D02*
Y03073D01*
X02715*
X02725Y03083*
Y03122*
X02715Y03132*
X02685*
X02745Y03073D02*
X02765D01*
X02755*
Y03132*
X02745Y03122*
X02795Y03073D02*
X02815D01*
X02805*
Y03132*
X02795Y03122*
X0189Y02838D02*
Y02779D01*
X01919*
X01929Y02789*
Y02828*
X01919Y02838*
X0189*
X01949Y02779D02*
X01969D01*
X01959*
Y02838*
X01949Y02828*
X01999D02*
X02009Y02838D01*
X02029*
X02039Y02828*
Y02789*
X02029Y02779*
X02009*
X01999Y02789*
Y02828*
X03672Y03361D02*
Y03302D01*
X03701*
X03711Y03312*
Y03351*
X03701Y03361*
X03672*
X03731Y03351D02*
X03741Y03361D01*
X03761*
X03771Y03351*
Y03341*
X03761Y03331*
X03751*
X03761*
X03771Y03321*
Y03312*
X03761Y03302*
X03741*
X03731Y03312*
X02387Y02763D02*
Y02822D01*
X02416*
X02426Y02812*
Y02792*
X02416Y02782*
X02387*
X02406D02*
X02426Y02763D01*
X02446Y02753D02*
X02486D01*
X02506Y02822D02*
Y02763D01*
X02546*
X02606Y02822D02*
X02566D01*
Y02763*
X02606*
X02566Y02792D02*
X02586D01*
X02626Y02822D02*
Y02763D01*
X02656*
X02666Y02773*
Y02812*
X02656Y02822*
X02626*
X02686Y02763D02*
X02706D01*
X02696*
Y02822*
X02686Y02812*
X02736D02*
X02746Y02822D01*
X02766*
X02776Y02812*
Y02773*
X02766Y02763*
X02746*
X02736Y02773*
Y02812*
X03421Y03063D02*
Y03122D01*
X0345*
X0346Y03112*
Y03092*
X0345Y03082*
X03421*
X0344D02*
X0346Y03063D01*
X0348Y03053D02*
X0352D01*
X0354Y03122D02*
Y03063D01*
X0358*
X0364Y03122D02*
X036D01*
Y03063*
X0364*
X036Y03092D02*
X0362D01*
X0366Y03122D02*
Y03063D01*
X0369*
X037Y03073*
Y03112*
X0369Y03122*
X0366*
X0372Y03112D02*
X0373Y03122D01*
X0375*
X0376Y03112*
Y03102*
X0375Y03092*
X0374*
X0375*
X0376Y03082*
Y03073*
X0375Y03063*
X0373*
X0372Y03073*
X02072Y02439D02*
Y0238D01*
X02101*
X02111Y0239*
Y02429*
X02101Y02439*
X02072*
X02131Y0239D02*
X02141Y0238D01*
X02161*
X02171Y0239*
Y02429*
X02161Y02439*
X02141*
X02131Y02429*
Y02419*
X02141Y02409*
X02171*
X03808Y02843D02*
Y02784D01*
X03837*
X03847Y02794*
Y02833*
X03837Y02843*
X03808*
X03897Y02784D02*
Y02843D01*
X03867Y02813*
X03907*
X02461Y02498D02*
Y02557D01*
X0249*
X025Y02547*
Y02527*
X0249Y02517*
X02461*
X0248D02*
X025Y02498D01*
X0252Y02488D02*
X0256D01*
X0258Y02557D02*
Y02498D01*
X0262*
X0268Y02557D02*
X0264D01*
Y02498*
X0268*
X0264Y02527D02*
X0266D01*
X027Y02557D02*
Y02498D01*
X0273*
X0274Y02508*
Y02547*
X0273Y02557*
X027*
X0276Y02508D02*
X0277Y02498D01*
X0279*
X028Y02508*
Y02547*
X0279Y02557*
X0277*
X0276Y02547*
Y02537*
X0277Y02527*
X028*
X03512Y02768D02*
Y02827D01*
X03541*
X03551Y02817*
Y02797*
X03541Y02787*
X03512*
X03531D02*
X03551Y02768D01*
X03571Y02758D02*
X03611D01*
X03631Y02827D02*
Y02768D01*
X03671*
X03731Y02827D02*
X03691D01*
Y02768*
X03731*
X03691Y02797D02*
X03711D01*
X03751Y02827D02*
Y02768D01*
X03781*
X03791Y02778*
Y02817*
X03781Y02827*
X03751*
X03841Y02768D02*
Y02827D01*
X03811Y02797*
X03851*
X02409Y02099D02*
Y0204D01*
X02438*
X02448Y0205*
Y02089*
X02438Y02099*
X02409*
X02468Y02089D02*
X02478Y02099D01*
X02498*
X02508Y02089*
Y02079*
X02498Y02069*
X02508Y02059*
Y0205*
X02498Y0204*
X02478*
X02468Y0205*
Y02059*
X02478Y02069*
X02468Y02079*
Y02089*
X02478Y02069D02*
X02498D01*
X03635Y02444D02*
Y02385D01*
X03664*
X03674Y02395*
Y02434*
X03664Y02444*
X03635*
X03734D02*
X03694D01*
Y02414*
X03714Y02424*
X03724*
X03734Y02414*
Y02395*
X03724Y02385*
X03704*
X03694Y02395*
X02662Y02294D02*
Y02353D01*
X02691*
X02701Y02343*
Y02323*
X02691Y02313*
X02662*
X02681D02*
X02701Y02294D01*
X02721Y02284D02*
X02761D01*
X02781Y02353D02*
Y02294D01*
X02821*
X02881Y02353D02*
X02841D01*
Y02294*
X02881*
X02841Y02323D02*
X02861D01*
X02901Y02353D02*
Y02294D01*
X02931*
X02941Y02304*
Y02343*
X02931Y02353*
X02901*
X02961Y02343D02*
X02971Y02353D01*
X02991*
X03001Y02343*
Y02333*
X02991Y02323*
X03001Y02313*
Y02304*
X02991Y02294*
X02971*
X02961Y02304*
Y02313*
X02971Y02323*
X02961Y02333*
Y02343*
X02971Y02323D02*
X02991D01*
X03466Y02468D02*
Y02527D01*
X03495*
X03505Y02517*
Y02497*
X03495Y02487*
X03466*
X03485D02*
X03505Y02468D01*
X03525Y02458D02*
X03565D01*
X03585Y02527D02*
Y02468D01*
X03625*
X03685Y02527D02*
X03645D01*
Y02468*
X03685*
X03645Y02497D02*
X03665D01*
X03705Y02527D02*
Y02468D01*
X03735*
X03745Y02478*
Y02517*
X03735Y02527*
X03705*
X03805D02*
X03765D01*
Y02497*
X03785Y02507*
X03795*
X03805Y02497*
Y02478*
X03795Y02468*
X03775*
X03765Y02478*
X02936Y01996D02*
Y01937D01*
X02965*
X02975Y01947*
Y01986*
X02965Y01996*
X02936*
X02995D02*
X03035D01*
Y01986*
X02995Y01947*
Y01937*
X03359Y021D02*
Y02041D01*
X03388*
X03398Y02051*
Y0209*
X03388Y021*
X03359*
X03458D02*
X03438Y0209D01*
X03418Y0207*
Y02051*
X03428Y02041*
X03448*
X03458Y02051*
Y0206*
X03448Y0207*
X03418*
X02962Y02238D02*
Y02297D01*
X02991*
X03001Y02287*
Y02267*
X02991Y02257*
X02962*
X02981D02*
X03001Y02238D01*
X03021Y02228D02*
X03061D01*
X03081Y02297D02*
Y02238D01*
X03121*
X03181Y02297D02*
X03141D01*
Y02238*
X03181*
X03141Y02267D02*
X03161D01*
X03201Y02297D02*
Y02238D01*
X03231*
X03241Y02248*
Y02287*
X03231Y02297*
X03201*
X03261D02*
X03301D01*
Y02287*
X03261Y02248*
Y02238*
X03227Y0231D02*
Y02369D01*
X03256*
X03266Y02359*
Y02339*
X03256Y02329*
X03227*
X03246D02*
X03266Y0231D01*
X03286Y023D02*
X03326D01*
X03346Y02369D02*
Y0231D01*
X03386*
X03446Y02369D02*
X03406D01*
Y0231*
X03446*
X03406Y02339D02*
X03426D01*
X03466Y02369D02*
Y0231D01*
X03496*
X03506Y0232*
Y02359*
X03496Y02369*
X03466*
X03566D02*
X03546Y02359D01*
X03526Y02339*
Y0232*
X03536Y0231*
X03556*
X03566Y0232*
Y02329*
X03556Y02339*
X03526*
X02896Y02813D02*
Y02754D01*
X02925*
X02935Y02764*
Y02773*
X02925Y02783*
X02896*
X02925*
X02935Y02793*
Y02803*
X02925Y02813*
X02896*
X02955Y02754D02*
Y02793D01*
X02975Y02813*
X02995Y02793*
Y02754*
Y02783*
X02955*
X03015Y02813D02*
X03055D01*
X03035*
Y02754*
G54D12*
X03134Y0267D02*
X03104D01*
X03119Y02655D02*
Y02685D01*
M02*