%FSTAX23Y23*%
%MOIN*%
%SFA1B1*%

%IPPOS*%
%ADD11C,0.010000*%
%ADD21R,0.059060X0.059060*%
%ADD38C,0.059060*%
%LNnatal-1*%
%LPD*%
G54D11*
X02565Y0247D02*
Y02529D01*
X02584Y02509*
X02604Y02529*
Y0247*
X02664Y02529D02*
X02624D01*
Y0247*
X02664*
X02624Y02499D02*
X02644D01*
X02684Y0247D02*
Y02529D01*
X02714*
X02724Y02519*
Y02499*
X02714Y02489*
X02684*
X02704D02*
X02724Y0247D01*
X02744D02*
Y02529D01*
X02774*
X02784Y02519*
Y02499*
X02774Y02489*
X02744*
X02764D02*
X02784Y0247D01*
X02804Y02529D02*
Y02519D01*
X02824Y02499*
X02844Y02519*
Y02529*
X02824Y02499D02*
Y0247D01*
X02964Y02519D02*
X02954Y02529D01*
X02934*
X02924Y02519*
Y0248*
X02934Y0247*
X02954*
X02964Y0248*
X02984Y02529D02*
Y0247D01*
Y02499*
X03024*
Y02529*
Y0247*
X03044D02*
Y02529D01*
X03074*
X03084Y02519*
Y02499*
X03074Y02489*
X03044*
X03064D02*
X03084Y0247D01*
X03104Y02529D02*
X03124D01*
X03114*
Y0247*
X03104*
X03124*
X03194Y02519D02*
X03184Y02529D01*
X03164*
X03154Y02519*
Y02509*
X03164Y02499*
X03184*
X03194Y02489*
Y0248*
X03184Y0247*
X03164*
X03154Y0248*
X03214Y02529D02*
X03254D01*
X03234*
Y0247*
X03274D02*
Y02529D01*
X03294Y02509*
X03314Y02529*
Y0247*
X03334D02*
Y02509D01*
X03354Y02529*
X03374Y02509*
Y0247*
Y02499*
X03334*
X03434Y02519D02*
X03424Y02529D01*
X03404*
X03394Y02519*
Y02509*
X03404Y02499*
X03424*
X03434Y02489*
Y0248*
X03424Y0247*
X03404*
X03394Y0248*
G54D21*
X0304Y0267D03*
G54D38*
X0294Y0267D03*
M02*