%TF.GenerationSoftware,Altium Limited,Altium Designer,19.0.15 (446)*%
G04 Layer_Color=0*
%FSLAX45Y45*%
%MOMM*%
%TF.FileFunction,Profile,NP*%
%TF.Part,Single*%
G01*
G75*
%TA.AperFunction,Profile*%
%ADD41C,0.02540*%
D41*
X4949650Y5373635D02*
X5494000Y5230885D01*
X5580450Y5497935D01*
X6259800Y5891285D01*
X6693900D01*
X6545300Y5633435D01*
X6185500Y5697035D01*
X6006300Y5457635D01*
X6403500Y5387735D01*
X6313700Y5231835D01*
X5892650Y5306135D01*
X5713000Y5066735D01*
X6171400Y4986135D01*
X6081550Y4830285D01*
X5599850Y4915235D01*
X5420650Y4675835D01*
X5939750Y4584535D01*
X5844100Y4418985D01*
X6271900Y4172285D01*
X6367100Y4337385D01*
X6706050Y3933385D01*
X6824050Y4208235D01*
X6509850Y4583085D01*
X6599700Y4738985D01*
X6898800Y4382535D01*
X7016350Y4657385D01*
X6741500Y4984685D01*
X6831300Y5140585D01*
X7090650Y4831235D01*
X7208150Y5106085D01*
X6973100Y5386285D01*
X7121700Y5643135D01*
X7341700Y5261985D01*
X7342650Y4486935D01*
X7151350Y4274285D01*
X7547100Y3874135D01*
X7942850Y4274285D01*
X7754900Y4483085D01*
X7754450Y5267785D01*
X7971500Y5644135D01*
X8120100Y5386285D01*
X7885050Y5106085D01*
X8002550Y4831735D01*
X8261900Y5140585D01*
X8352200Y4984685D01*
X8077350Y4657385D01*
X8194850Y4382535D01*
X8494000Y4738985D01*
X8583850Y4583585D01*
X8269150Y4208235D01*
X8386700Y3933885D01*
X8725650Y4337885D01*
X8821300Y4172285D01*
X9249100Y4419435D01*
X9153450Y4584535D01*
X9672550Y4676335D01*
X9493350Y4915235D01*
X9011650Y4830285D01*
X8921300Y4986135D01*
X9379700Y5067235D01*
X9200550Y5306135D01*
X8779500Y5231835D01*
X8689700Y5387735D01*
X9086900Y5457635D01*
X8907700Y5697035D01*
X8547900Y5633435D01*
X8399300Y5890785D01*
X8839750D01*
X9511300Y5504285D01*
X9599700Y5231835D01*
X10144050Y5374635D01*
X9995450Y5917535D01*
X9721100Y5859235D01*
X9040750Y6251135D01*
X8823700Y6626985D01*
X9120900D01*
X9246200Y6283635D01*
X9542900Y6247735D01*
X9404950Y6626985D01*
X9584650D01*
X9730800Y6225385D01*
X10027500Y6189935D01*
X9868250Y6626985D01*
X10048400D01*
X10215900Y6167135D01*
X10512600Y6131685D01*
X10331950Y6627435D01*
X10523300D01*
Y7120835D01*
X10331950D01*
X10512600Y7616585D01*
X10215900Y7581135D01*
X10048400Y7121285D01*
X9868250D01*
X10027500Y7558835D01*
X9730800Y7522885D01*
X9584650Y7121285D01*
X9404950D01*
X9542900Y7500535D01*
X9246200Y7465085D01*
X9120900Y7121285D01*
X8824200D01*
X9044650Y7502985D01*
X9715250Y7890985D01*
X9994950Y7831735D01*
X10143550Y8374635D01*
X9599200Y8516885D01*
X9512750Y8250335D01*
X8833400Y7857485D01*
X8398800D01*
X8547900Y8114835D01*
X8907700Y8051235D01*
X9086900Y8290635D01*
X8689700Y8360535D01*
X8779500Y8516435D01*
X9200550Y8442135D01*
X9379700Y8681535D01*
X8921800Y8762135D01*
X9011650Y8917985D01*
X9493350Y8833035D01*
X9672550Y9071935D01*
X9153450Y9163735D01*
X9249100Y9329285D01*
X8821300Y9575985D01*
X8726100Y9410885D01*
X8387150Y9814385D01*
X8269650Y9540035D01*
X8584300Y9164685D01*
X8494000Y9009285D01*
X8194850Y9365735D01*
X8077350Y9090885D01*
X8352200Y8763585D01*
X8262350Y8607685D01*
X8003050Y8916535D01*
X7885550Y8642185D01*
X8120550Y8361985D01*
X7972000Y8104635D01*
X7751500Y8486285D01*
X7751050Y9261335D01*
X7942350Y9473985D01*
X7546600Y9874135D01*
X7150850Y9473985D01*
X7338300Y9265185D01*
X7339250Y8480485D01*
X7121700Y8104635D01*
X6973100Y8361985D01*
X7208150Y8641685D01*
X7090650Y8916535D01*
X6831300Y8607685D01*
X6741500Y8763585D01*
X7016350Y9090885D01*
X6898800Y9365235D01*
X6599700Y9008785D01*
X6509850Y9164685D01*
X6824050Y9540035D01*
X6706500Y9814385D01*
X6368050Y9410885D01*
X6272400Y9575985D01*
X5844600Y9328835D01*
X5940250Y9163735D01*
X5421150Y9071935D01*
X5600350Y8832535D01*
X6082050Y8917985D01*
X6171900Y8762135D01*
X5713500Y8681035D01*
X5893150Y8442135D01*
X6314150Y8516435D01*
X6404000Y8360535D01*
X6006800Y8290635D01*
X6185950Y8051235D01*
X6545800Y8114835D01*
X6694400Y7857485D01*
X6253950D01*
X5582350Y8244485D01*
X5494000Y8515935D01*
X4949650Y8373635D01*
X5098700Y7830735D01*
X5372600Y7889035D01*
X6052900Y7497135D01*
X6269950Y7121285D01*
X5972800D01*
X5848000Y7464635D01*
X5550800Y7500535D01*
X5689200Y7121285D01*
X5508550D01*
X5361900Y7522885D01*
X5065700Y7558335D01*
X5224500Y7120835D01*
X5044800D01*
X4877300Y7581135D01*
X4580600Y7616585D01*
X4760750Y7120835D01*
X4569900D01*
Y6626985D01*
X4760750D01*
X4580600Y6131685D01*
X4877300Y6167135D01*
X5044800Y6626985D01*
X5224500D01*
X5065700Y6189435D01*
X5361900Y6224885D01*
X5508550Y6626985D01*
X5688250D01*
X5550300Y6247735D01*
X5847000Y6283635D01*
X5971800Y6626985D01*
X6269000D01*
X6048550Y6245285D01*
X5377950Y5857285D01*
X5098250Y5916535D01*
X4949650Y5373635D01*
%TF.MD5,627f52d7c9625607dfd9d394d3e995dd*%
M02*
