%FSTAX23Y23*%
%MOIN*%
%SFA1B1*%

%IPPOS*%
%ADD40C,0.005000*%
%LNnatal-1*%
%LPD*%
G54D40*
X02665Y03222D02*
X02685Y03186D01*
X02684Y03233D02*
X02704Y03197D01*
X02665Y03222D02*
X02684Y03233D01*
X02685Y03186D02*
X02704Y03197D01*
X02964Y03254D02*
Y03295D01*
X02985Y03254D02*
Y03295D01*
X02964D02*
X02985D01*
X02964Y03254D02*
X02985D01*
X03235Y03177D02*
X03255Y03213D01*
X03254Y03166D02*
X03274Y03202D01*
X03255Y03213D02*
X03274Y03202D01*
X03235Y03177D02*
X03254Y03166D01*
X02456Y02995D02*
X02492Y02975D01*
X02467Y03014D02*
X02503Y02994D01*
X02456Y02995D02*
X02467Y03014D01*
X02492Y02975D02*
X02503Y02994D01*
X02394Y02689D02*
X02435D01*
X02394Y0271D02*
X02435D01*
X02394Y02689D02*
Y0271D01*
X02435Y02689D02*
Y0271D01*
X03431Y02984D02*
X03467Y03004D01*
X03442Y02965D02*
X03478Y02985D01*
X03467Y03004D02*
X03478Y02985D01*
X03431Y02984D02*
X03442Y02965D01*
X02482Y024D02*
X02518Y0242D01*
X02471Y02419D02*
X02507Y02439D01*
X02471Y02419D02*
X02482Y024D01*
X02507Y02439D02*
X02518Y0242D01*
X03519Y02715D02*
X0356D01*
X03519Y02694D02*
X0356D01*
Y02715*
X03519Y02694D02*
Y02715D01*
X02689Y02186D02*
X02709Y02222D01*
X0267Y02197D02*
X0269Y02233D01*
X0267Y02197D02*
X02689Y02186D01*
X0269Y02233D02*
X02709Y02222D01*
X03487Y02409D02*
X03523Y02389D01*
X03476Y0239D02*
X03512Y0237D01*
X03523Y02389*
X03476Y0239D02*
X03487Y02409D01*
X02964Y02139D02*
Y0218D01*
X02985Y02139D02*
Y0218D01*
X02964D02*
X02985D01*
X02964Y02139D02*
X02985D01*
X03254Y02248D02*
X03274Y02213D01*
X03235Y02238D02*
X03255Y02202D01*
X03274Y02213*
X03235Y02238D02*
X03254Y02248D01*
M02*