%TF.GenerationSoftware,Altium Limited,Altium Designer,19.0.15 (446)*%
G04 Layer_Physical_Order=1*
G04 Layer_Color=255*
%FSLAX45Y45*%
%MOMM*%
%TF.FileFunction,Copper,L1,Top,Signal*%
%TF.Part,Single*%
G01*
G75*
%TA.AperFunction,SMDPad,CuDef*%
%ADD10P,2.12132X4X165.0*%
%ADD11R,1.50000X1.50000*%
G04:AMPARAMS|DCode=12|XSize=0.49mm|YSize=0.6mm|CornerRadius=0.049mm|HoleSize=0mm|Usage=FLASHONLY|Rotation=120.000|XOffset=0mm|YOffset=0mm|HoleType=Round|Shape=RoundedRectangle|*
%AMROUNDEDRECTD12*
21,1,0.49000,0.50200,0,0,120.0*
21,1,0.39200,0.60000,0,0,120.0*
1,1,0.09800,0.11937,0.29524*
1,1,0.09800,0.31537,-0.04424*
1,1,0.09800,-0.11937,-0.29524*
1,1,0.09800,-0.31537,0.04424*
%
%ADD12ROUNDEDRECTD12*%
G04:AMPARAMS|DCode=13|XSize=0.49mm|YSize=0.6mm|CornerRadius=0.049mm|HoleSize=0mm|Usage=FLASHONLY|Rotation=90.000|XOffset=0mm|YOffset=0mm|HoleType=Round|Shape=RoundedRectangle|*
%AMROUNDEDRECTD13*
21,1,0.49000,0.50200,0,0,90.0*
21,1,0.39200,0.60000,0,0,90.0*
1,1,0.09800,0.25100,0.19600*
1,1,0.09800,0.25100,-0.19600*
1,1,0.09800,-0.25100,-0.19600*
1,1,0.09800,-0.25100,0.19600*
%
%ADD13ROUNDEDRECTD13*%
%ADD14P,2.12132X4X105.0*%
%ADD15P,2.12132X4X195.0*%
G04:AMPARAMS|DCode=16|XSize=0.49mm|YSize=0.6mm|CornerRadius=0.049mm|HoleSize=0mm|Usage=FLASHONLY|Rotation=60.000|XOffset=0mm|YOffset=0mm|HoleType=Round|Shape=RoundedRectangle|*
%AMROUNDEDRECTD16*
21,1,0.49000,0.50200,0,0,60.0*
21,1,0.39200,0.60000,0,0,60.0*
1,1,0.09800,0.31537,0.04424*
1,1,0.09800,0.11937,-0.29524*
1,1,0.09800,-0.31537,-0.04424*
1,1,0.09800,-0.11937,0.29524*
%
%ADD16ROUNDEDRECTD16*%
G04:AMPARAMS|DCode=17|XSize=0.49mm|YSize=0.6mm|CornerRadius=0.049mm|HoleSize=0mm|Usage=FLASHONLY|Rotation=150.000|XOffset=0mm|YOffset=0mm|HoleType=Round|Shape=RoundedRectangle|*
%AMROUNDEDRECTD17*
21,1,0.49000,0.50200,0,0,150.0*
21,1,0.39200,0.60000,0,0,150.0*
1,1,0.09800,-0.04424,0.31537*
1,1,0.09800,0.29524,0.11937*
1,1,0.09800,0.04424,-0.31537*
1,1,0.09800,-0.29524,-0.11937*
%
%ADD17ROUNDEDRECTD17*%
%ADD18R,1.50000X1.50000*%
%ADD19P,2.12132X4X75.0*%
G04:AMPARAMS|DCode=20|XSize=0.49mm|YSize=0.6mm|CornerRadius=0.049mm|HoleSize=0mm|Usage=FLASHONLY|Rotation=180.000|XOffset=0mm|YOffset=0mm|HoleType=Round|Shape=RoundedRectangle|*
%AMROUNDEDRECTD20*
21,1,0.49000,0.50200,0,0,180.0*
21,1,0.39200,0.60000,0,0,180.0*
1,1,0.09800,-0.19600,0.25100*
1,1,0.09800,0.19600,0.25100*
1,1,0.09800,0.19600,-0.25100*
1,1,0.09800,-0.19600,-0.25100*
%
%ADD20ROUNDEDRECTD20*%
G04:AMPARAMS|DCode=21|XSize=0.49mm|YSize=0.6mm|CornerRadius=0.049mm|HoleSize=0mm|Usage=FLASHONLY|Rotation=30.000|XOffset=0mm|YOffset=0mm|HoleType=Round|Shape=RoundedRectangle|*
%AMROUNDEDRECTD21*
21,1,0.49000,0.50200,0,0,30.0*
21,1,0.39200,0.60000,0,0,30.0*
1,1,0.09800,0.29524,-0.11937*
1,1,0.09800,-0.04424,-0.31537*
1,1,0.09800,-0.29524,0.11937*
1,1,0.09800,0.04424,0.31537*
%
%ADD21ROUNDEDRECTD21*%
%TA.AperFunction,Conductor*%
%ADD22C,0.25400*%
%TA.AperFunction,ComponentPad*%
%ADD23C,1.50000*%
%ADD24R,1.50000X1.50000*%
G36*
X7942351Y9473987D02*
X7751049Y9261333D01*
X7751501Y8486287D01*
X7971998Y8104637D01*
X8120548Y8361985D01*
X7885552Y8642187D01*
X7998281Y8905393D01*
X8010845Y8907251D01*
X8262351Y8607684D01*
X8352201Y8763584D01*
X8077352Y9090884D01*
X8190081Y9354586D01*
X8202644Y9356448D01*
X8493999Y9009283D01*
X8584301Y9164686D01*
X8269651Y9540037D01*
X8382381Y9803250D01*
X8394944Y9805110D01*
X8726099Y9410883D01*
X8816812Y9568203D01*
X8829078Y9571496D01*
X9241317Y9333771D01*
X9244606Y9321504D01*
X9153449Y9163736D01*
X9660608Y9074047D01*
X9665272Y9062234D01*
X9493352Y8833033D01*
X9011651Y8917986D01*
X8921801Y8762136D01*
X9367762Y8683639D01*
X9372438Y8671831D01*
X9200551Y8442137D01*
X8779500Y8516437D01*
X8689701Y8360537D01*
X9074959Y8292738D01*
X9079635Y8280930D01*
X8907699Y8051236D01*
X8547903Y8114833D01*
X8398800Y7857485D01*
X8833399D01*
X9512752Y8250337D01*
X9599198Y8516884D01*
X10134812Y8376918D01*
X10141166Y8365922D01*
X9994951Y7831734D01*
X9715251Y7890988D01*
X9044650Y7502987D01*
X8824199Y7121286D01*
X9120901D01*
X9246199Y7465085D01*
X9530868Y7499096D01*
X9538759Y7489145D01*
X9404949Y7121286D01*
X9584649D01*
X9730801Y7522886D01*
X10015449Y7557377D01*
X10023347Y7547431D01*
X9868251Y7121286D01*
X10048403D01*
X10215900Y7581133D01*
X10500558Y7615148D01*
X10508447Y7605194D01*
X10331948Y7120834D01*
X10523301D01*
Y6627434D01*
X10331948D01*
X10508447Y6143079D01*
X10500559Y6133125D01*
X10215900Y6167135D01*
X10048403Y6626987D01*
X9868251D01*
X10023347Y6201326D01*
X10015459Y6191373D01*
X9730801Y6225388D01*
X9584649Y6626987D01*
X9404949D01*
X9538754Y6259138D01*
X9530856Y6249192D01*
X9246199Y6283635D01*
X9120901Y6626987D01*
X8823701D01*
X9040749Y6251133D01*
X9721098Y5859236D01*
X9995449Y5917535D01*
X10141665Y5383343D01*
X10135316Y5372344D01*
X9599701Y5231836D01*
X9511299Y5504287D01*
X8876477Y5869645D01*
X8875945Y5871740D01*
X8886284Y5882633D01*
X8890000Y5881893D01*
X9251262D01*
X9280686Y5852470D01*
X9237143Y5777052D01*
X9411041Y5676652D01*
X9511440Y5850550D01*
X9337543Y5950950D01*
X9326118Y5931161D01*
X9313526Y5929504D01*
X9294821Y5948209D01*
X9282218Y5956629D01*
X9267353Y5959587D01*
X8906091D01*
X8889441Y5976236D01*
Y5993569D01*
X8900440Y5999920D01*
X8918383Y5989560D01*
X8929797Y5985685D01*
X8941825Y5986474D01*
X8952636Y5991805D01*
X8960584Y6000868D01*
X8985684Y6044342D01*
X8989559Y6055756D01*
X8988770Y6067785D01*
X8983439Y6078596D01*
X8974376Y6086544D01*
X8968252Y6090080D01*
Y6146800D01*
X8965295Y6161666D01*
X8956874Y6174269D01*
X8911155Y6219988D01*
X8911154Y6219989D01*
X8321874Y6809269D01*
X8309271Y6817689D01*
X8294406Y6820647D01*
X7822000D01*
Y6882200D01*
X7760447D01*
Y7040880D01*
Y7393940D01*
Y7747455D01*
X8104438Y8091447D01*
X8116143Y8085191D01*
X8114553Y8077200D01*
Y7112000D01*
X8117511Y7097134D01*
X8125931Y7084531D01*
X8273470Y6936993D01*
X8286073Y6928572D01*
X8300938Y6925615D01*
X8895462D01*
X8901493Y6912915D01*
X8897957Y6907622D01*
X8895605Y6895800D01*
Y6845600D01*
X8897957Y6833778D01*
X8904654Y6823755D01*
X8907252Y6822019D01*
Y6817578D01*
X8910209Y6802713D01*
X8918630Y6790110D01*
X8979808Y6728931D01*
X8992411Y6720511D01*
X9007277Y6717553D01*
X9657598D01*
X9672464Y6720511D01*
X9685067Y6728931D01*
X9726435Y6770300D01*
X9872298D01*
Y6971100D01*
X9671498D01*
Y6825237D01*
X9641508Y6795247D01*
X9025557D01*
X9024080Y6796492D01*
X9019069Y6803166D01*
X9024756Y6814706D01*
X9056701D01*
X9068524Y6817058D01*
X9078546Y6823755D01*
X9085243Y6833778D01*
X9087595Y6845600D01*
Y6895800D01*
X9085243Y6907622D01*
X9078546Y6917645D01*
X9073521Y6921003D01*
X9072991Y6923666D01*
X9064570Y6936269D01*
X9008909Y6991930D01*
X8955660Y7045179D01*
X8943057Y7053600D01*
X8928191Y7056557D01*
X8855291D01*
X8801847Y7110001D01*
Y7158632D01*
X8842574Y7199360D01*
X8850995Y7211962D01*
X8853952Y7226828D01*
Y7562420D01*
X8860076Y7565956D01*
X8869139Y7573904D01*
X8874470Y7584715D01*
X8875259Y7596744D01*
X8871384Y7608158D01*
X8846668Y7650968D01*
X8847343Y7653642D01*
X8852621Y7663668D01*
X9192905D01*
X9207771Y7666625D01*
X9220374Y7675046D01*
X9408024Y7862696D01*
X9420616Y7861039D01*
X9432041Y7841250D01*
X9605939Y7941650D01*
X9505539Y8115548D01*
X9331641Y8015148D01*
X9375184Y7939730D01*
X9176815Y7741361D01*
X8788400D01*
X8773534Y7738404D01*
X8760931Y7729983D01*
X8708826Y7677877D01*
X8700405Y7665275D01*
X8697448Y7650409D01*
Y7601380D01*
X8691324Y7597844D01*
X8682261Y7589896D01*
X8676930Y7579085D01*
X8676141Y7567056D01*
X8680016Y7555642D01*
X8705116Y7512168D01*
X8713064Y7503105D01*
X8723875Y7497774D01*
X8735903Y7496985D01*
X8747317Y7500860D01*
X8765260Y7511220D01*
X8776259Y7504869D01*
Y7242919D01*
X8735531Y7202191D01*
X8727111Y7189589D01*
X8724153Y7174723D01*
Y7093910D01*
X8727111Y7079044D01*
X8735531Y7066442D01*
X8786932Y7015041D01*
X8782071Y7003308D01*
X8317029D01*
X8192247Y7128091D01*
Y8020654D01*
X8204947Y8027987D01*
X8241442Y8006916D01*
X8252856Y8003041D01*
X8264885Y8003830D01*
X8275696Y8009161D01*
X8283644Y8018224D01*
X8287180Y8024348D01*
X8350214D01*
X8365080Y8027305D01*
X8377683Y8035726D01*
X8592349Y8250391D01*
X8600769Y8262994D01*
X8603727Y8277860D01*
Y8687382D01*
X8638230Y8721885D01*
X8713648Y8678343D01*
X8814048Y8852241D01*
X8640150Y8952640D01*
X8539750Y8778743D01*
X8559539Y8767318D01*
X8561196Y8754726D01*
X8537411Y8730941D01*
X8528991Y8718338D01*
X8526033Y8703473D01*
Y8293951D01*
X8361682Y8129599D01*
X8350608Y8136486D01*
X8352615Y8142397D01*
X8351826Y8154425D01*
X8346495Y8165236D01*
X8337432Y8173184D01*
X8293958Y8198284D01*
X8282544Y8202159D01*
X8270515Y8201370D01*
X8259704Y8196039D01*
X8251756Y8186976D01*
X8248220Y8180852D01*
X8100060D01*
X8085194Y8177895D01*
X8072591Y8169474D01*
X7772180Y7869062D01*
X7760447Y7873923D01*
Y8262402D01*
X7757489Y8277268D01*
X7749069Y8289870D01*
X7647469Y8391470D01*
X7634866Y8399891D01*
X7620000Y8402848D01*
X7605181D01*
X7603445Y8405446D01*
X7593422Y8412143D01*
X7581600Y8414495D01*
X7547593D01*
X7542332Y8427195D01*
X7571269Y8456131D01*
X7579689Y8468734D01*
X7582647Y8483600D01*
Y8960298D01*
X7644200D01*
Y9161098D01*
X7443400D01*
Y8960298D01*
X7504953D01*
Y8499691D01*
X7460451Y8455189D01*
X7452031Y8442586D01*
X7449073Y8427720D01*
Y8303478D01*
X7452031Y8288613D01*
X7460451Y8276010D01*
X7490931Y8245530D01*
X7503534Y8237109D01*
X7506197Y8236579D01*
X7509555Y8231554D01*
X7519578Y8224857D01*
X7531400Y8222505D01*
X7581600D01*
X7593422Y8224857D01*
X7603445Y8231554D01*
X7610142Y8241576D01*
X7612494Y8253399D01*
Y8292598D01*
X7611001Y8300103D01*
X7622705Y8306359D01*
X7682753Y8246311D01*
Y7763546D01*
Y7504317D01*
X7671020Y7499457D01*
X7015009Y8155468D01*
X7015009Y8155469D01*
X6950203Y8220274D01*
X6937600Y8228695D01*
X6922734Y8231652D01*
X6839380D01*
X6835844Y8237776D01*
X6827896Y8246839D01*
X6817085Y8252170D01*
X6805056Y8252959D01*
X6793642Y8249084D01*
X6750168Y8223984D01*
X6741105Y8216036D01*
X6735774Y8205225D01*
X6734985Y8193197D01*
X6738860Y8181783D01*
X6740834Y8178364D01*
X6730671Y8170566D01*
X6655547Y8245691D01*
Y8648141D01*
X6652589Y8663007D01*
X6644169Y8675610D01*
X6540501Y8779278D01*
X6542158Y8791869D01*
X6561947Y8803294D01*
X6461547Y8977192D01*
X6287649Y8876792D01*
X6388049Y8702894D01*
X6463467Y8746437D01*
X6577853Y8632051D01*
Y8229600D01*
X6580811Y8214734D01*
X6589231Y8202131D01*
X6704837Y8086526D01*
X6717440Y8078105D01*
X6732306Y8075148D01*
X6800420D01*
X6803956Y8069024D01*
X6811904Y8059961D01*
X6822715Y8054630D01*
X6834744Y8053841D01*
X6846158Y8057716D01*
X6889632Y8082816D01*
X6898695Y8090764D01*
X6904026Y8101575D01*
X6904815Y8113603D01*
X6900940Y8125017D01*
X6892603Y8139458D01*
X6899020Y8151274D01*
X6908518Y8152085D01*
X6948693Y8111909D01*
Y7427811D01*
X6539649Y7018767D01*
X6401957D01*
X6397097Y7030500D01*
X6451129Y7084531D01*
X6459549Y7097134D01*
X6462507Y7112000D01*
Y7357074D01*
X6459549Y7371940D01*
X6451129Y7384543D01*
X6319286Y7516385D01*
X6327084Y7526548D01*
X6327583Y7526260D01*
X6338997Y7522385D01*
X6351025Y7523174D01*
X6361836Y7528505D01*
X6369784Y7537568D01*
X6394884Y7581042D01*
X6398759Y7592456D01*
X6397970Y7604485D01*
X6392639Y7615296D01*
X6383576Y7623244D01*
X6377452Y7626780D01*
Y7674574D01*
X6374495Y7689440D01*
X6366074Y7702043D01*
X6275869Y7792249D01*
X6263266Y7800669D01*
X6248400Y7803627D01*
X5866269D01*
X5756963Y7912933D01*
X5800506Y7988351D01*
X5626608Y8088751D01*
X5526208Y7914853D01*
X5700106Y7814453D01*
X5711531Y7834242D01*
X5724122Y7835899D01*
X5822710Y7737311D01*
X5835313Y7728891D01*
X5850179Y7725933D01*
X6232309D01*
X6253676Y7704567D01*
X6248765Y7691518D01*
X6247375Y7691426D01*
X6236564Y7686095D01*
X6228616Y7677032D01*
X6203516Y7633558D01*
X6199641Y7622144D01*
X6200430Y7610115D01*
X6205761Y7599304D01*
X6214824Y7591356D01*
X6220948Y7587820D01*
Y7520940D01*
X6223905Y7506074D01*
X6232326Y7493471D01*
X6384813Y7340984D01*
Y7128091D01*
X6303429Y7046707D01*
X6197600D01*
X6182734Y7043749D01*
X6170131Y7035329D01*
X6142191Y7007389D01*
X6061130Y6926327D01*
X6052709Y6913724D01*
X6051546Y6907881D01*
X6047154Y6904945D01*
X6040457Y6894922D01*
X6038105Y6883100D01*
Y6832900D01*
X6040457Y6821078D01*
X6047154Y6811055D01*
X6057176Y6804358D01*
X6068999Y6802006D01*
X6101510D01*
X6106771Y6789306D01*
X6092391Y6774927D01*
X5418412D01*
X5380801Y6812538D01*
Y6958400D01*
X5180001D01*
Y6757600D01*
X5325863D01*
X5374852Y6708611D01*
X5387455Y6700191D01*
X5402321Y6697233D01*
X6108482D01*
X6123347Y6700191D01*
X6135950Y6708611D01*
X6207070Y6779731D01*
X6215491Y6792334D01*
X6218448Y6807200D01*
Y6809319D01*
X6221046Y6811055D01*
X6227743Y6821078D01*
X6230095Y6832900D01*
Y6883100D01*
X6227743Y6894922D01*
X6221046Y6904945D01*
X6211024Y6911642D01*
X6199201Y6913994D01*
X6176631D01*
X6171371Y6926694D01*
X6185751Y6941073D01*
X6555740D01*
X6570606Y6944031D01*
X6583209Y6952451D01*
X7015009Y7384251D01*
X7023429Y7396854D01*
X7026387Y7411720D01*
Y8017623D01*
X7038120Y8022483D01*
X7682753Y7377849D01*
Y7040880D01*
Y6893545D01*
X7670053Y6888284D01*
X7550949Y7007389D01*
X7538346Y7015809D01*
X7523480Y7018767D01*
X6823674D01*
X6808809Y7015809D01*
X6796206Y7007389D01*
X6270426Y6481609D01*
X6262005Y6469006D01*
X6259048Y6454140D01*
Y6166280D01*
X6252924Y6162744D01*
X6243861Y6154796D01*
X6238530Y6143985D01*
X6237741Y6131956D01*
X6241616Y6120542D01*
X6264153Y6081507D01*
X6258208Y6068807D01*
X5942167D01*
X5927302Y6065849D01*
X5914699Y6057429D01*
X5774074Y5916804D01*
X5761482Y5918461D01*
X5750057Y5938250D01*
X5576160Y5837850D01*
X5676559Y5663952D01*
X5850457Y5764352D01*
X5806914Y5839770D01*
X5958258Y5991113D01*
X6310666D01*
X6325531Y5994071D01*
X6338134Y6002491D01*
X6404174Y6068531D01*
X6412595Y6081134D01*
X6415552Y6096000D01*
Y6127320D01*
X6421676Y6130856D01*
X6430739Y6138804D01*
X6436070Y6149615D01*
X6436859Y6161644D01*
X6432984Y6173058D01*
X6407884Y6216532D01*
X6399936Y6225595D01*
X6389125Y6230926D01*
X6377097Y6231715D01*
X6365683Y6227840D01*
X6347740Y6217480D01*
X6336741Y6223831D01*
Y6438049D01*
X6839765Y6941073D01*
X7507389D01*
X7621200Y6827262D01*
Y6681400D01*
X7682753D01*
Y5649592D01*
X7606233Y5573072D01*
X7603758Y5573316D01*
X7595347Y5579658D01*
Y5628640D01*
X7592389Y5643506D01*
X7583969Y5656109D01*
X7444269Y5795809D01*
X7431666Y5804229D01*
X7416800Y5807187D01*
X7112000D01*
X7097134Y5804229D01*
X7084531Y5795809D01*
X6927489Y5638766D01*
X6926070Y5639177D01*
X6917515Y5653197D01*
X6916726Y5665225D01*
X6911395Y5676036D01*
X6902332Y5683984D01*
X6858858Y5709084D01*
X6847444Y5712959D01*
X6835415Y5712170D01*
X6824604Y5706839D01*
X6816656Y5697776D01*
X6813120Y5691652D01*
X6648486D01*
X6633619Y5688695D01*
X6621017Y5680274D01*
X6573991Y5633249D01*
X6565571Y5620646D01*
X6562613Y5605780D01*
Y5132209D01*
X6463467Y5033063D01*
X6388049Y5076606D01*
X6287649Y4902708D01*
X6461547Y4802308D01*
X6561947Y4976206D01*
X6542158Y4987631D01*
X6540501Y5000222D01*
X6628929Y5088650D01*
X6637349Y5101253D01*
X6640307Y5116119D01*
Y5589689D01*
X6664576Y5613959D01*
X6755569D01*
X6761920Y5602960D01*
X6751560Y5585017D01*
X6747685Y5573603D01*
X6748474Y5561575D01*
X6753805Y5550764D01*
X6762868Y5542816D01*
X6806342Y5517716D01*
X6817756Y5513841D01*
X6829785Y5514630D01*
X6840596Y5519961D01*
X6848544Y5529024D01*
X6852080Y5535148D01*
X6917654D01*
X6932520Y5538105D01*
X6945123Y5546526D01*
X7128091Y5729493D01*
X7400709D01*
X7517653Y5612549D01*
Y5578758D01*
X7509555Y5573346D01*
X7502858Y5563324D01*
X7500506Y5551501D01*
Y5512302D01*
X7502858Y5500479D01*
X7509555Y5490457D01*
Y5482343D01*
X7502858Y5472321D01*
X7500506Y5460498D01*
Y5421299D01*
X7502858Y5409476D01*
X7509555Y5399454D01*
X7517653Y5394042D01*
Y4819202D01*
X7456100D01*
Y4618402D01*
X7656900D01*
Y4819202D01*
X7595347D01*
Y5394042D01*
X7603445Y5399454D01*
X7610142Y5409476D01*
X7612494Y5421299D01*
Y5460498D01*
X7610142Y5472321D01*
X7604618Y5480588D01*
X7606843Y5487674D01*
X7610273Y5493055D01*
X7620000D01*
X7634866Y5496012D01*
X7647469Y5504433D01*
X7749069Y5606033D01*
X7757489Y5618635D01*
X7760447Y5633502D01*
Y6681400D01*
X7822000D01*
Y6742953D01*
X8278315D01*
X8778168Y6243100D01*
X8773308Y6231367D01*
X8262620D01*
X8247754Y6228409D01*
X8235151Y6219989D01*
X8090371Y6075209D01*
X8081951Y6062606D01*
X8078993Y6047740D01*
Y5674360D01*
X8081951Y5659494D01*
X8090371Y5646891D01*
X8151331Y5585931D01*
X8163934Y5577511D01*
X8178800Y5574553D01*
X8248220D01*
X8251756Y5568429D01*
X8259704Y5559366D01*
X8270515Y5554035D01*
X8282544Y5553247D01*
X8293958Y5557121D01*
X8337432Y5582221D01*
X8346495Y5590169D01*
X8351826Y5600980D01*
X8352462Y5610680D01*
X8359025Y5614876D01*
X8364602Y5616501D01*
X8409193Y5571909D01*
Y5166360D01*
X8412151Y5151494D01*
X8420571Y5138891D01*
X8558397Y5001065D01*
X8556740Y4988474D01*
X8536951Y4977049D01*
X8637351Y4803151D01*
X8811249Y4903551D01*
X8710849Y5077449D01*
X8635431Y5033906D01*
X8486887Y5182451D01*
Y5588000D01*
X8483929Y5602866D01*
X8475509Y5615469D01*
X8371297Y5719680D01*
X8358695Y5728101D01*
X8343829Y5731058D01*
X8287180D01*
X8283644Y5737182D01*
X8275696Y5746245D01*
X8264885Y5751576D01*
X8252856Y5752364D01*
X8241442Y5748490D01*
X8197968Y5723390D01*
X8188905Y5715442D01*
X8183574Y5704631D01*
X8182785Y5692603D01*
X8186660Y5681188D01*
X8190417Y5674680D01*
X8180255Y5666882D01*
X8156687Y5690451D01*
Y6031649D01*
X8278711Y6153673D01*
X8814224D01*
X8819978Y6140973D01*
X8819416Y6140332D01*
X8794316Y6096858D01*
X8790441Y6085444D01*
X8791230Y6073415D01*
X8796561Y6062604D01*
X8805624Y6054656D01*
X8811748Y6051120D01*
Y5960146D01*
X8814705Y5945280D01*
X8823126Y5932677D01*
X8862531Y5893271D01*
X8865891Y5891026D01*
X8871424Y5884299D01*
X8869142Y5880622D01*
X8861567Y5878226D01*
X8839749Y5890783D01*
X8399302D01*
X8547903Y5633436D01*
X8907699Y5697037D01*
X9079635Y5467344D01*
X9074959Y5455535D01*
X8689701Y5387736D01*
X8779500Y5231836D01*
X9200551Y5306136D01*
X9372428Y5076934D01*
X9367763Y5065122D01*
X8921298Y4986137D01*
X9011651Y4830288D01*
X9493352Y4915235D01*
X9665272Y4686034D01*
X9660607Y4674221D01*
X9153449Y4584537D01*
X9244595Y4427213D01*
X9241319Y4414942D01*
X8829075Y4176778D01*
X8816806Y4180062D01*
X8725652Y4337883D01*
X8394489Y3943171D01*
X8381926Y3945027D01*
X8269148Y4208236D01*
X8583849Y4583587D01*
X8493999Y4738985D01*
X8202644Y4391826D01*
X8190081Y4393687D01*
X8077352Y4657385D01*
X8352201Y4984684D01*
X8261899Y5140584D01*
X8010342Y4841015D01*
X7997779Y4842874D01*
X7885049Y5106086D01*
X8120101Y5386283D01*
X7971500Y5644134D01*
X7754452Y5267787D01*
X7754899Y4483085D01*
X7942849Y4274287D01*
X7553452Y3880556D01*
X7540752Y3880556D01*
X7151350Y4274287D01*
X7342652Y4486935D01*
X7341702Y5261986D01*
X7121698Y5643133D01*
X6973103Y5386283D01*
X7208149Y5106086D01*
X7095418Y4842393D01*
X7082854Y4840534D01*
X6831300Y5140584D01*
X6741500Y4984684D01*
X7016349Y4657385D01*
X6903571Y4393686D01*
X6891008Y4391826D01*
X6599702Y4738985D01*
X6509852Y4583085D01*
X6824050Y4208236D01*
X6710831Y3944514D01*
X6698266Y3942663D01*
X6367099Y4337385D01*
X6276386Y4180065D01*
X6264120Y4176772D01*
X5851881Y4414497D01*
X5848593Y4426764D01*
X5939749Y4584537D01*
X5432592Y4673735D01*
X5427916Y4685543D01*
X5599852Y4915235D01*
X6081552Y4830288D01*
X6171402Y4986137D01*
X5724953Y5064634D01*
X5720284Y5076445D01*
X5892648Y5306136D01*
X6313698Y5231836D01*
X6403503Y5387736D01*
X6018244Y5455535D01*
X6013568Y5467344D01*
X6185499Y5697037D01*
X6545301Y5633436D01*
X6693901Y5891286D01*
X6259800D01*
X5580451Y5497937D01*
X5494000Y5230886D01*
X4958386Y5371344D01*
X4952036Y5382343D01*
X5098252Y5916534D01*
X5377952Y5857286D01*
X6048548Y6245286D01*
X6268999Y6626987D01*
X5971799D01*
X5846999Y6283635D01*
X5562347Y6249192D01*
X5554449Y6259137D01*
X5688249Y6626987D01*
X5508549D01*
X5361899Y6224885D01*
X5077728Y6190876D01*
X5069833Y6200824D01*
X5224501Y6626987D01*
X5044801D01*
X4877298Y6167135D01*
X4592634Y6133125D01*
X4584743Y6143076D01*
X4760752Y6626987D01*
X4569902D01*
Y7120834D01*
X4760752D01*
X4584739Y7605199D01*
X4592631Y7615149D01*
X4877298Y7581133D01*
X5044801Y7120834D01*
X5224501D01*
X5069833Y7546947D01*
X5077728Y7556894D01*
X5361899Y7522886D01*
X5508549Y7121286D01*
X5689199D01*
X5554962Y7489127D01*
X5562854Y7499077D01*
X5847999Y7464633D01*
X5972800Y7121286D01*
X6269949D01*
X6052901Y7497135D01*
X5372598Y7889037D01*
X5098699Y7830734D01*
X4952044Y8364920D01*
X4958394Y8375918D01*
X5494000Y8515934D01*
X5582351Y8244484D01*
X6253952Y7857485D01*
X6694399D01*
X6545798Y8114833D01*
X6185952Y8051236D01*
X6014064Y8280930D01*
X6018740Y8292738D01*
X6404000Y8360537D01*
X6314150Y8516437D01*
X5893151Y8442137D01*
X5720796Y8671333D01*
X5725453Y8683149D01*
X6171900Y8762136D01*
X6082050Y8917986D01*
X5600349Y8832535D01*
X5428413Y9062235D01*
X5433084Y9074045D01*
X5940252Y9163736D01*
X5849106Y9321061D01*
X5852382Y9333331D01*
X6272398Y9575983D01*
X6368049Y9410883D01*
X6698709Y9805100D01*
X6711273Y9803245D01*
X6824050Y9540037D01*
X6509852Y9164686D01*
X6599702Y9008786D01*
X6891012Y9355950D01*
X6903576Y9354094D01*
X7016349Y9090884D01*
X6741500Y8763584D01*
X6831300Y8607684D01*
X7082852Y8907248D01*
X7095415Y8905385D01*
X7208149Y8641685D01*
X6973103Y8361985D01*
X7121698Y8104637D01*
X7339249Y8480486D01*
X7338299Y9265183D01*
X7150852Y9473987D01*
X7540249Y9867713D01*
X7552949D01*
X7942351Y9473987D01*
D02*
G37*
%LPC*%
G36*
X7644200Y9511100D02*
X7556500D01*
Y9423400D01*
X7644200D01*
Y9511100D01*
D02*
G37*
G36*
X7531100D02*
X7443400D01*
Y9423400D01*
X7531100D01*
Y9511100D01*
D02*
G37*
G36*
X7644200Y9398000D02*
X7556500D01*
Y9310300D01*
X7644200D01*
Y9398000D01*
D02*
G37*
G36*
X7531100D02*
X7443400D01*
Y9310300D01*
X7531100D01*
Y9398000D01*
D02*
G37*
G36*
X6286551Y9280306D02*
X6210601Y9236455D01*
X6254451Y9160505D01*
X6330401Y9204355D01*
X6286551Y9280306D01*
D02*
G37*
G36*
X8815151Y9255749D02*
X8771301Y9179799D01*
X8847252Y9135948D01*
X8891101Y9211899D01*
X8815151Y9255749D01*
D02*
G37*
G36*
X6188604Y9223755D02*
X6112653Y9179906D01*
X6156503Y9103955D01*
X6232454Y9147805D01*
X6188604Y9223755D01*
D02*
G37*
G36*
X8913099Y9199199D02*
X8869248Y9123248D01*
X8945199Y9079399D01*
X8989049Y9155349D01*
X8913099Y9199199D01*
D02*
G37*
G36*
X6343101Y9182358D02*
X6267151Y9138508D01*
X6311001Y9062558D01*
X6386951Y9106408D01*
X6343101Y9182358D01*
D02*
G37*
G36*
X8758601Y9157801D02*
X8714751Y9081851D01*
X8790701Y9038001D01*
X8834552Y9113952D01*
X8758601Y9157801D01*
D02*
G37*
G36*
X6245154Y9125808D02*
X6169203Y9081958D01*
X6213053Y9006008D01*
X6289003Y9049858D01*
X6245154Y9125808D01*
D02*
G37*
G36*
X8856548Y9101252D02*
X8812699Y9025301D01*
X8888649Y8981451D01*
X8932499Y9057401D01*
X8856548Y9101252D01*
D02*
G37*
G36*
X9808647Y8290549D02*
X9732697Y8246699D01*
X9776547Y8170748D01*
X9852497Y8214599D01*
X9808647Y8290549D01*
D02*
G37*
G36*
X5323494Y8263747D02*
X5279645Y8187796D01*
X5355595Y8143946D01*
X5399445Y8219897D01*
X5323494Y8263747D01*
D02*
G37*
G36*
X9710700Y8233999D02*
X9634749Y8190149D01*
X9678599Y8114199D01*
X9754550Y8158048D01*
X9710700Y8233999D01*
D02*
G37*
G36*
X5421442Y8207197D02*
X5377592Y8131246D01*
X5453542Y8087397D01*
X5497392Y8163347D01*
X5421442Y8207197D01*
D02*
G37*
G36*
X9865197Y8192601D02*
X9789247Y8148752D01*
X9833097Y8072801D01*
X9909047Y8116651D01*
X9865197Y8192601D01*
D02*
G37*
G36*
X5266945Y8165799D02*
X5223094Y8089849D01*
X5299045Y8045999D01*
X5342895Y8121949D01*
X5266945Y8165799D01*
D02*
G37*
G36*
X9767250Y8136052D02*
X9691299Y8092201D01*
X9735149Y8016251D01*
X9811100Y8060101D01*
X9767250Y8136052D01*
D02*
G37*
G36*
X5364892Y8109249D02*
X5321042Y8033299D01*
X5396992Y7989449D01*
X5440842Y8065399D01*
X5364892Y8109249D01*
D02*
G37*
G36*
X10222300Y6971100D02*
X10134600D01*
Y6883400D01*
X10222300D01*
Y6971100D01*
D02*
G37*
G36*
X10109200D02*
X10021500D01*
Y6883400D01*
X10109200D01*
Y6971100D01*
D02*
G37*
G36*
X5030799Y6958400D02*
X4943099D01*
Y6870700D01*
X5030799D01*
Y6958400D01*
D02*
G37*
G36*
X4917699D02*
X4829999D01*
Y6870700D01*
X4917699D01*
Y6958400D01*
D02*
G37*
G36*
X7480300Y6881394D02*
Y6794500D01*
X7567194D01*
X7565416Y6808010D01*
X7555299Y6832433D01*
X7539206Y6853406D01*
X7518233Y6869499D01*
X7493810Y6879616D01*
X7480300Y6881394D01*
D02*
G37*
G36*
X7454900D02*
X7441390Y6879616D01*
X7416967Y6869499D01*
X7395994Y6853406D01*
X7379901Y6832433D01*
X7369784Y6808010D01*
X7368006Y6794500D01*
X7454900D01*
Y6881394D01*
D02*
G37*
G36*
X10222300Y6858000D02*
X10134600D01*
Y6770300D01*
X10222300D01*
Y6858000D01*
D02*
G37*
G36*
X10109200D02*
X10021500D01*
Y6770300D01*
X10109200D01*
Y6858000D01*
D02*
G37*
G36*
X5030799Y6845300D02*
X4943099D01*
Y6757600D01*
X5030799D01*
Y6845300D01*
D02*
G37*
G36*
X4917699D02*
X4829999D01*
Y6757600D01*
X4917699D01*
Y6845300D01*
D02*
G37*
G36*
X7567194Y6769100D02*
X7480300D01*
Y6682206D01*
X7493810Y6683984D01*
X7518233Y6694101D01*
X7539206Y6710194D01*
X7555299Y6731167D01*
X7565416Y6755590D01*
X7567194Y6769100D01*
D02*
G37*
G36*
X7454900D02*
X7368006D01*
X7369784Y6755590D01*
X7379901Y6731167D01*
X7395994Y6710194D01*
X7416967Y6694101D01*
X7441390Y6683984D01*
X7454900Y6682206D01*
Y6769100D01*
D02*
G37*
G36*
X9640651Y5775949D02*
X9596801Y5699999D01*
X9672752Y5656148D01*
X9716601Y5732099D01*
X9640651Y5775949D01*
D02*
G37*
G36*
X5446949Y5763249D02*
X5370999Y5719399D01*
X5414848Y5643448D01*
X5490799Y5687299D01*
X5446949Y5763249D01*
D02*
G37*
G36*
X9738599Y5719399D02*
X9694748Y5643448D01*
X9770699Y5599599D01*
X9814549Y5675549D01*
X9738599Y5719399D01*
D02*
G37*
G36*
X5349001Y5706699D02*
X5273051Y5662849D01*
X5316901Y5586899D01*
X5392852Y5630748D01*
X5349001Y5706699D01*
D02*
G37*
G36*
X9584101Y5678001D02*
X9540251Y5602051D01*
X9616201Y5558201D01*
X9660052Y5634152D01*
X9584101Y5678001D01*
D02*
G37*
G36*
X5503499Y5665301D02*
X5427548Y5621452D01*
X5471399Y5545501D01*
X5547349Y5589351D01*
X5503499Y5665301D01*
D02*
G37*
G36*
X9682048Y5621452D02*
X9638199Y5545501D01*
X9714149Y5501651D01*
X9757999Y5577601D01*
X9682048Y5621452D01*
D02*
G37*
G36*
X5405552Y5608752D02*
X5329601Y5564901D01*
X5373451Y5488951D01*
X5449401Y5532801D01*
X5405552Y5608752D01*
D02*
G37*
G36*
X8885850Y4774340D02*
X8809899Y4730490D01*
X8853749Y4654540D01*
X8929700Y4698390D01*
X8885850Y4774340D01*
D02*
G37*
G36*
X6213053Y4773492D02*
X6169203Y4697542D01*
X6245154Y4653692D01*
X6289003Y4729642D01*
X6213053Y4773492D01*
D02*
G37*
G36*
X8787902Y4717790D02*
X8711952Y4673940D01*
X8755802Y4597990D01*
X8831752Y4641840D01*
X8787902Y4717790D01*
D02*
G37*
G36*
X6311001Y4716942D02*
X6267151Y4640992D01*
X6343101Y4597142D01*
X6386951Y4673092D01*
X6311001Y4716942D01*
D02*
G37*
G36*
X8942400Y4676393D02*
X8866449Y4632543D01*
X8910299Y4556592D01*
X8986250Y4600442D01*
X8942400Y4676393D01*
D02*
G37*
G36*
X6156503Y4675545D02*
X6112653Y4599594D01*
X6188604Y4555745D01*
X6232454Y4631695D01*
X6156503Y4675545D01*
D02*
G37*
G36*
X8844452Y4619843D02*
X8768502Y4575993D01*
X8812352Y4500043D01*
X8888302Y4543892D01*
X8844452Y4619843D01*
D02*
G37*
G36*
X6254451Y4618995D02*
X6210601Y4543045D01*
X6286551Y4499194D01*
X6330401Y4575145D01*
X6254451Y4618995D01*
D02*
G37*
G36*
X7656900Y4469200D02*
X7569200D01*
Y4381500D01*
X7656900D01*
Y4469200D01*
D02*
G37*
G36*
X7543800D02*
X7456100D01*
Y4381500D01*
X7543800D01*
Y4469200D01*
D02*
G37*
G36*
X7656900Y4356100D02*
X7569200D01*
Y4268400D01*
X7656900D01*
Y4356100D01*
D02*
G37*
G36*
X7543800D02*
X7456100D01*
Y4268400D01*
X7543800D01*
Y4356100D01*
D02*
G37*
%LPD*%
D10*
X6424798Y8840043D02*
D03*
X6249802Y9143157D02*
D03*
X8674100Y4940300D02*
D03*
X8849101Y4637191D02*
D03*
D11*
X7543800Y9060698D02*
D03*
Y9410700D02*
D03*
X7556500Y4718802D02*
D03*
Y4368800D02*
D03*
D12*
X6842648Y8113994D02*
D03*
X6797152Y8192806D02*
D03*
X8244952Y5692211D02*
D03*
X8290448Y5613400D02*
D03*
D13*
X7556500Y8272998D02*
D03*
Y8364002D02*
D03*
Y5440898D02*
D03*
Y5531902D02*
D03*
D14*
X8676899Y8815491D02*
D03*
X8851900Y9118600D02*
D03*
X6424798Y4939457D02*
D03*
X6249802Y4636343D02*
D03*
D15*
X5663357Y7951602D02*
D03*
X5360243Y8126598D02*
D03*
X9374292Y5813801D02*
D03*
X9677400Y5638800D02*
D03*
D16*
X8244952Y8063194D02*
D03*
X8290448Y8142006D02*
D03*
X6855348Y5652806D02*
D03*
X6809852Y5573994D02*
D03*
D17*
X6338606Y7584552D02*
D03*
X6259794Y7630048D02*
D03*
X8850594Y6093348D02*
D03*
X8929406Y6047852D02*
D03*
D18*
X5280401Y6858000D02*
D03*
X4930399D02*
D03*
X9771898Y6870700D02*
D03*
X10121900D02*
D03*
D19*
X9468790Y7978399D02*
D03*
X9771898Y8153400D02*
D03*
X5713308Y5801101D02*
D03*
X5410200Y5626100D02*
D03*
D20*
X6179602Y6858000D02*
D03*
X6088598D02*
D03*
X8946098Y6870700D02*
D03*
X9037102D02*
D03*
D21*
X8736294Y7559152D02*
D03*
X8815106Y7604648D02*
D03*
X6376706Y6169548D02*
D03*
X6297894Y6124052D02*
D03*
D22*
X7556500Y4718802D02*
Y5440898D01*
X8981440Y6964462D02*
X9037102Y6908800D01*
X8928191Y7017710D02*
X8981440Y6964462D01*
X8100060Y8142006D02*
X8218206D01*
X7721600Y7040880D02*
Y7393940D01*
X8294406Y6781800D02*
X8883686Y6192520D01*
X7721600Y7763546D02*
Y8262402D01*
Y7393940D02*
Y7763546D01*
X6987540Y8128000D02*
X7721600Y7393940D01*
X6169660Y6979920D02*
X6197600Y7007860D01*
X7620000Y8364002D02*
X7721600Y8262402D01*
X7556500Y8364002D02*
X7620000D01*
X7721600Y7763546D02*
X8100060Y8142006D01*
X9037102Y6870700D02*
Y6908800D01*
X8839200Y7017710D02*
X8928191D01*
X8763000Y7093910D02*
X8839200Y7017710D01*
X8763000Y7093910D02*
Y7174723D01*
X8815106Y7226828D01*
Y7604648D01*
X8929406Y6047852D02*
Y6146800D01*
X8883686Y6192520D02*
X8929406Y6146800D01*
X8262620Y6192520D02*
X8883686D01*
X8117840Y6047740D02*
X8262620Y6192520D01*
X8117840Y5674360D02*
Y6047740D01*
Y5674360D02*
X8178800Y5613400D01*
X8290448D01*
X7721600Y6781800D02*
X8294406D01*
X6088598Y6898858D02*
X6169660Y6979920D01*
X6555740D01*
X6987540Y7411720D01*
Y8128000D01*
X6922734Y8192806D02*
X6987540Y8128000D01*
X6797152Y8192806D02*
X6922734D01*
X6088598Y6858000D02*
Y6898858D01*
X6197600Y7007860D02*
X6319520D01*
X6423660Y7112000D01*
Y7357074D01*
X6259794Y7520940D02*
X6423660Y7357074D01*
X6259794Y7520940D02*
Y7630048D01*
X7721600Y6781800D02*
Y7040880D01*
X9192905Y7702514D02*
X9468790Y7978399D01*
X8788400Y7702514D02*
X9192905D01*
X8736294Y7650409D02*
X8788400Y7702514D01*
X8736294Y7559152D02*
Y7650409D01*
X6179602Y6807200D02*
Y6858000D01*
X6108482Y6736080D02*
X6179602Y6807200D01*
X5402321Y6736080D02*
X6108482D01*
X5280401Y6858000D02*
X5402321Y6736080D01*
X8218206Y8142006D02*
X8290448D01*
X8153400Y8077200D02*
X8218206Y8142006D01*
X8153400Y7112000D02*
Y8077200D01*
Y7112000D02*
X8300938Y6964462D01*
X8981440D01*
X9657598Y6756400D02*
X9771898Y6870700D01*
X9007277Y6756400D02*
X9657598D01*
X8946098Y6817578D02*
X9007277Y6756400D01*
X8946098Y6817578D02*
Y6870700D01*
X6297894Y6124052D02*
Y6454140D01*
X6823674Y6979920D01*
X7523480D01*
X7721600Y6781800D01*
Y5633502D02*
Y6781800D01*
X7620000Y5531902D02*
X7721600Y5633502D01*
X7556500Y5531902D02*
X7620000D01*
X6648486Y5652806D02*
X6855348D01*
X6601460Y5605780D02*
X6648486Y5652806D01*
X6601460Y5116119D02*
Y5605780D01*
X6424798Y4939457D02*
X6601460Y5116119D01*
X6732306Y8113994D02*
X6842648D01*
X6616700Y8229600D02*
X6732306Y8113994D01*
X6616700Y8229600D02*
Y8648141D01*
X6424798Y8840043D02*
X6616700Y8648141D01*
X8244952Y8063194D02*
X8350214D01*
X8564880Y8277860D01*
Y8703473D01*
X8676899Y8815492D01*
X8448040Y5166360D02*
X8674100Y4940300D01*
X8448040Y5166360D02*
Y5588000D01*
X8343829Y5692211D02*
X8448040Y5588000D01*
X8244952Y5692211D02*
X8343829D01*
X6376706Y6096000D02*
Y6169548D01*
X6310666Y6029960D02*
X6376706Y6096000D01*
X5942167Y6029960D02*
X6310666D01*
X5713308Y5801101D02*
X5942167Y6029960D01*
X6338606Y7584552D02*
Y7674574D01*
X6248400Y7764780D02*
X6338606Y7674574D01*
X5850179Y7764780D02*
X6248400D01*
X5663357Y7951602D02*
X5850179Y7764780D01*
X8850594Y5960146D02*
Y6093348D01*
Y5960146D02*
X8890000Y5920740D01*
X9267353D01*
X9374292Y5813801D01*
X6809852Y5573994D02*
X6917654D01*
X7112000Y5768340D01*
X7416800D01*
X7556500Y5628640D01*
Y5531902D02*
Y5628640D01*
X7518400Y8272998D02*
X7556500D01*
X7487920Y8303478D02*
X7518400Y8272998D01*
X7487920Y8303478D02*
Y8427720D01*
X7543800Y8483600D01*
Y9060698D01*
D23*
X7467600Y6781800D02*
D03*
D24*
X7721600D02*
D03*
%TF.MD5,4863ae188e1096901705a809e0f6ffcd*%
M02*
