%FSTAX23Y23*%
%MOIN*%
%SFA1B1*%

%IPPOS*%
%AMD25*
4,1,4,-0.012300,-0.045800,0.045800,-0.012300,0.012300,0.045800,-0.045800,0.012300,-0.012300,-0.045800,0.0*
%
%AMD27*
4,1,8,-0.017500,-0.001200,-0.009800,-0.014600,-0.001800,-0.016700,0.015400,-0.006800,0.017500,0.001200,0.009800,0.014600,0.001800,0.016700,-0.015400,0.006800,-0.017500,-0.001200,0.0*
1,1,0.011860,-0.012400,0.001700*
1,1,0.011860,-0.004700,-0.011600*
1,1,0.011860,0.012400,-0.001700*
1,1,0.011860,0.004700,0.011600*
%
%AMD28*
4,1,8,-0.015800,0.007700,-0.015800,-0.007700,-0.009900,-0.013600,0.009900,-0.013600,0.015800,-0.007700,0.015800,0.007700,0.009900,0.013600,-0.009900,0.013600,-0.015800,0.007700,0.0*
1,1,0.011860,-0.009900,0.007700*
1,1,0.011860,-0.009900,-0.007700*
1,1,0.011860,0.009900,-0.007700*
1,1,0.011860,0.009900,0.007700*
%
%AMD29*
4,1,4,-0.045800,-0.012300,0.012300,-0.045800,0.045800,0.012300,-0.012300,0.045800,-0.045800,-0.012300,0.0*
%
%AMD30*
4,1,4,0.012300,-0.045800,0.045800,0.012300,-0.012300,0.045800,-0.045800,-0.012300,0.012300,-0.045800,0.0*
%
%AMD31*
4,1,8,-0.009800,0.014600,-0.017500,0.001200,-0.015400,-0.006800,0.001800,-0.016700,0.009800,-0.014600,0.017500,-0.001200,0.015400,0.006800,-0.001800,0.016700,-0.009800,0.014600,0.0*
1,1,0.011860,-0.004700,0.011600*
1,1,0.011860,-0.012400,-0.001700*
1,1,0.011860,0.004700,-0.011600*
1,1,0.011860,0.012400,0.001700*
%
%AMD32*
4,1,8,-0.014600,-0.009800,-0.001200,-0.017500,0.006800,-0.015400,0.016700,0.001800,0.014600,0.009800,0.001200,0.017500,-0.006800,0.015400,-0.016700,-0.001800,-0.014600,-0.009800,0.0*
1,1,0.011860,-0.011600,-0.004700*
1,1,0.011860,0.001700,-0.012400*
1,1,0.011860,0.011600,0.004700*
1,1,0.011860,-0.001700,0.012400*
%
%AMD34*
4,1,4,-0.045800,0.012300,-0.012300,-0.045800,0.045800,-0.012300,0.012300,0.045800,-0.045800,0.012300,0.0*
%
%AMD35*
4,1,8,-0.007700,-0.015800,0.007700,-0.015800,0.013600,-0.009900,0.013600,0.009900,0.007700,0.015800,-0.007700,0.015800,-0.013600,0.009900,-0.013600,-0.009900,-0.007700,-0.015800,0.0*
1,1,0.011860,-0.007700,-0.009900*
1,1,0.011860,0.007700,-0.009900*
1,1,0.011860,0.007700,0.009900*
1,1,0.011860,-0.007700,0.009900*
%
%AMD36*
4,1,8,-0.001200,0.017500,-0.014600,0.009800,-0.016700,0.001800,-0.006800,-0.015400,0.001200,-0.017500,0.014600,-0.009800,0.016700,-0.001800,0.006800,0.015400,-0.001200,0.017500,0.0*
1,1,0.011860,0.001700,0.012400*
1,1,0.011860,-0.011600,0.004700*
1,1,0.011860,-0.001700,-0.012400*
1,1,0.011860,0.011600,-0.004700*
%
G04~CAMADD=25~10~0.0~670.5~0.0~0.0~0.0~0.0~0~0.0~0.0~0.0~0.0~0~0.0~0.0~0.0~0.0~0~0.0~0.0~0.0~210.0~670.5~0.0*
%ADD25D25*%
%ADD26R,0.067060X0.067060*%
G04~CAMADD=27~8~0.0~0.0~272.9~316.2~59.3~0.0~15~0.0~0.0~0.0~0.0~0~0.0~0.0~0.0~0.0~0~0.0~0.0~0.0~120.0~368.0~351.0*
%ADD27D27*%
G04~CAMADD=28~8~0.0~0.0~272.9~316.2~59.3~0.0~15~0.0~0.0~0.0~0.0~0~0.0~0.0~0.0~0.0~0~0.0~0.0~0.0~90.0~316.0~272.0*
%ADD28D28*%
G04~CAMADD=29~10~0.0~670.5~0.0~0.0~0.0~0.0~0~0.0~0.0~0.0~0.0~0~0.0~0.0~0.0~0.0~0~0.0~0.0~0.0~150.0~670.5~0.0*
%ADD29D29*%
G04~CAMADD=30~10~0.0~670.5~0.0~0.0~0.0~0.0~0~0.0~0.0~0.0~0.0~0~0.0~0.0~0.0~0.0~0~0.0~0.0~0.0~240.0~670.5~0.0*
%ADD30D30*%
G04~CAMADD=31~8~0.0~0.0~272.9~316.2~59.3~0.0~15~0.0~0.0~0.0~0.0~0~0.0~0.0~0.0~0.0~0~0.0~0.0~0.0~60.0~368.0~351.0*
%ADD31D31*%
G04~CAMADD=32~8~0.0~0.0~272.9~316.2~59.3~0.0~15~0.0~0.0~0.0~0.0~0~0.0~0.0~0.0~0.0~0~0.0~0.0~0.0~150.0~352.0~367.0*
%ADD32D32*%
%ADD33R,0.067060X0.067060*%
G04~CAMADD=34~10~0.0~670.5~0.0~0.0~0.0~0.0~0~0.0~0.0~0.0~0.0~0~0.0~0.0~0.0~0.0~0~0.0~0.0~0.0~120.0~670.5~0.0*
%ADD34D34*%
G04~CAMADD=35~8~0.0~0.0~272.9~316.2~59.3~0.0~15~0.0~0.0~0.0~0.0~0~0.0~0.0~0.0~0.0~0~0.0~0.0~0.0~180.0~272.0~316.0*
%ADD35D35*%
G04~CAMADD=36~8~0.0~0.0~272.9~316.2~59.3~0.0~15~0.0~0.0~0.0~0.0~0~0.0~0.0~0.0~0.0~0~0.0~0.0~0.0~30.0~352.0~367.0*
%ADD36D36*%
%ADD37C,0.067060*%
%LNnatal-1*%
%LPD*%
G54D25*
X02529Y0348D03*
X0246Y03599D03*
X03415Y01945D03*
X03483Y01825D03*
G54D26*
X0297Y03567D03*
Y03705D03*
X02975Y01857D03*
Y0172D03*
G54D27*
X02693Y03194D03*
X02676Y03225D03*
X03246Y02241D03*
X03263Y0221D03*
G54D28*
X02975Y03257D03*
Y03292D03*
Y02142D03*
Y02177D03*
G54D29*
X03416Y0347D03*
X03485Y0359D03*
X02529Y01944D03*
X0246Y01825D03*
G54D30*
X02229Y0313D03*
X0211Y03199D03*
X0369Y02288D03*
X0381Y0222D03*
G54D31*
X03246Y03174D03*
X03263Y03205D03*
X02698Y02225D03*
X02681Y02194D03*
G54D32*
X02495Y02986D03*
X02464Y03003D03*
X03484Y02398D03*
X03515Y02381D03*
G54D33*
X02078Y027D03*
X01941D03*
X03847Y02705D03*
X03985D03*
X0304Y0267D03*
G54D34*
X03727Y03141D03*
X03847Y0321D03*
X02249Y02283D03*
X0213Y02215D03*
G54D35*
X02432Y027D03*
X02397D03*
X03522Y02705D03*
X03557D03*
G54D36*
X03439Y02976D03*
X0347Y02993D03*
X0251Y02428D03*
X02479Y02411D03*
G54D37*
X0294Y0267D03*
M02*